HIERARCHY
ROOT Hips
{
    OFFSET 0.000000 0.000000 0.000000
    CHANNELS 6 Xposition Yposition Zposition Zrotation Xrotation Yrotation
    JOINT Spine
    {
        OFFSET -0.000000 7.979263 0.000000
        CHANNELS 3 Zrotation Xrotation Yrotation
        JOINT Spine1
        {
            OFFSET -0.000000 24.719021 0.000000
            CHANNELS 3 Zrotation Xrotation Yrotation
            JOINT Neck
            {
                OFFSET -0.000000 24.617504 2.237955
                CHANNELS 3 Zrotation Xrotation Yrotation
                JOINT Head
                {
                    OFFSET -0.000000 13.623132 -1.946162
                    CHANNELS 3 Zrotation Xrotation Yrotation
                    End Site
                    {
                        OFFSET -0.000000 24.327021 0.000000
                    }
                }
            }
            JOINT LeftShoulder
            {
                OFFSET 3.885773 23.018444 -0.302444
                CHANNELS 3 Zrotation Xrotation Yrotation
                JOINT LeftArm
                {
                    OFFSET 10.447750 0.000000 0.000000
                    CHANNELS 3 Zrotation Xrotation Yrotation
                    JOINT LeftForeArm
                    {
                        OFFSET 29.090096 0.000000 0.000000
                        CHANNELS 3 Zrotation Xrotation Yrotation
                        JOINT LeftHand
                        {
                            OFFSET 28.893339 0.000000 0.000000
                            CHANNELS 3 Zrotation Xrotation Yrotation
                            End Site
                            {
                                OFFSET 14.596213 0.000000 0.000000
                            }
                        }
                    }
                }
            }
            JOINT RightShoulder
            {
                OFFSET -3.864586 23.018444 -0.302444
                CHANNELS 3 Zrotation Xrotation Yrotation
                JOINT RightArm
                {
                    OFFSET -10.447750 0.000000 0.000000
                    CHANNELS 3 Zrotation Xrotation Yrotation
                    JOINT RightForeArm
                    {
                        OFFSET -29.090096 0.000000 0.000000
                        CHANNELS 3 Zrotation Xrotation Yrotation
                        JOINT RightHand
                        {
                            OFFSET -28.893339 0.000000 0.000000
                            CHANNELS 3 Zrotation Xrotation Yrotation
                            End Site
                            {
                                OFFSET -14.596213 0.000000 0.000000
                            }
                        }
                    }
                }
            }
        }
    }
    JOINT LeftUpLeg
    {
        OFFSET 9.730808 0.000000 0.000000
        CHANNELS 3 Zrotation Xrotation Yrotation
        JOINT LeftLeg
        {
            OFFSET -0.000000 -34.800129 0.000000
            CHANNELS 3 Zrotation Xrotation Yrotation
            JOINT LeftFoot
            {
                OFFSET -0.000000 -44.597416 0.000000
                CHANNELS 3 Zrotation Xrotation Yrotation
                JOINT LeftToeBase
                {
                    OFFSET -0.000000 -6.325025 14.596213
                    CHANNELS 3 Zrotation Xrotation Yrotation
                    End Site
                    {
                        OFFSET -0.000000 0.000000 3.892323
                    }
                }
            }
        }
    }
    JOINT RightUpLeg
    {
        OFFSET -9.730808 0.000000 0.000000
        CHANNELS 3 Zrotation Xrotation Yrotation
        JOINT RightLeg
        {
            OFFSET -0.000000 -34.800129 0.000000
            CHANNELS 3 Zrotation Xrotation Yrotation
            JOINT RightFoot
            {
                OFFSET -0.000000 -44.597416 0.000000
                CHANNELS 3 Zrotation Xrotation Yrotation
                JOINT RightToeBase
                {
                    OFFSET -0.000000 -6.325025 14.596213
                    CHANNELS 3 Zrotation Xrotation Yrotation
                    End Site
                    {
                        OFFSET -0.000000 0.000000 3.892323
                    }
                }
            }
        }
    }
}
MOTION
Frames:    10
Frame Time:    0.008333
11.436317    85.550606    52.427067    0.133660    0.700821    91.207077    -1.061946    -9.338408    -0.564660    1.705709    -9.210814    -0.340697    -2.769785    27.794468    -0.776552    3.099009    0.446780    -0.690514    3.650850    2.938268    -18.144030    -0.726999    19.192442    -25.012548    37.507065    -9.045805    -52.582161    41.935299    10.657871    1.040179    -3.797324    8.153173    7.299218    75.212700    62.008869    2.846072    5.846375    -18.709452    11.822551    9.827953    -19.162420    1.476433    1.686587    4.984497    -0.416759    -1.062895    0.674897    -0.143465    -2.198268    -4.473733    10.442004    0.000000    0.000000    0.000000    -2.587091    7.468709    -1.901191    3.164224    0.134615    -1.465852    -0.641868    -6.998050    -11.068455    0.000000    0.000000    0.000000    
11.448436    85.551788    52.442593    0.146413    0.696252    91.191910    -1.338845    -9.402642    -0.524912    2.149639    -9.069968    -0.244369    -2.799844    27.677710    -0.872299    3.078005    0.487350    -0.794196    3.737160    3.083851    -18.449543    0.147923    20.015095    -24.932444    38.720936    -8.075868    -52.462860    42.921631    11.790377    -0.166248    -3.915459    8.099262    7.051519    75.152115    62.037495    2.816327    5.814419    -18.681755    11.855275    9.844033    -19.135534    1.445980    1.697044    5.004571    -0.420821    -1.057181    0.678599    -0.148401    -2.218713    -4.483313    10.471320    0.000000    0.000000    0.000000    -2.567578    7.481181    -1.952150    3.156308    0.141455    -1.460510    -0.636922    -6.992702    -11.016876    0.000000    0.000000    0.000000    
11.456498    85.551674    52.459301    0.150713    0.691794    91.180954    -1.609270    -9.457669    -0.504245    2.592132    -8.954294    -0.168242    -2.757673    27.684324    -0.977932    2.897671    0.336784    -0.920940    3.804126    3.211760    -18.719496    0.877838    20.762543    -24.880743    39.855873    -7.196505    -52.055397    44.125454    12.631781    -1.364663    -4.024514    8.055202    6.826088    75.029907    62.011578    2.838951    5.811774    -18.625202    11.875808    9.931263    -19.075624    1.485193    1.710637    5.010285    -0.428020    -1.056854    0.685603    -0.088691    -2.230608    -4.489356    10.440658    0.000000    0.000000    0.000000    -2.556521    7.479034    -1.940086    3.158983    0.159106    -1.450465    -0.633458    -6.997633    -11.019085    0.000000    0.000000    0.000000    
11.463937    85.552956    52.467907    0.154315    0.695274    91.189117    -1.824380    -9.482085    -0.526366    2.969083    -8.910671    -0.143899    -2.854756    27.676924    -1.005943    2.808743    0.283691    -0.971857    3.755663    3.354622    -18.834547    1.382275    21.089325    -24.810732    40.359116    -6.521739    -51.806747    45.605835    12.930336    -2.609845    -4.124320    8.055004    6.692838    74.872841    61.897888    2.918732    5.809218    -18.508715    11.861901    10.008909    -18.953016    1.540080    1.706571    5.006072    -0.422689    -1.040204    0.705850    -0.108334    -2.242077    -4.487277    10.435749    0.000000    0.000000    0.000000    -2.558698    7.477275    -1.931668    3.171983    0.177952    -1.460385    -0.658880    -7.005548    -11.037137    0.000000    0.000000    0.000000    
11.654322    85.574638    52.537197    0.564904    0.464930    91.806175    -1.918150    -9.356384    -0.863951    3.273587    -8.617170    -0.460247    -2.922206    27.677299    -1.015303    2.724727    0.202550    -0.999085    3.775471    3.450897    -18.871473    1.658919    21.106508    -24.802528    40.303654    -6.105583    -51.573086    46.499321    12.738667    -3.656935    -4.210827    8.054688    6.573418    74.528824    61.479889    3.156554    6.088886    -18.211382    11.911091    9.855851    -18.691622    1.501915    2.112990    5.469693    -0.809291    -1.135165    0.673395    -0.354001    -2.252645    -4.571267    10.429736    0.000000    0.000000    0.000000    -2.096590    8.396191    -2.313587    3.047361    -0.354690    -1.777011    -0.515764    -6.677502    -10.945932    0.000000    0.000000    0.000000    
11.660321    85.574661    52.541946    0.574666    0.465515    91.817413    -2.033058    -9.323574    -0.909203    3.499763    -8.679465    -0.477799    -3.032264    27.772169    -0.992221    2.655496    0.078816    -0.997156    3.725974    3.611958    -18.866066    1.739796    20.787508    -24.681646    39.928139    -5.959413    -51.384048    46.518433    12.322424    -4.291687    -4.230580    8.118161    6.541258    74.355515    61.318932    3.239795    6.090855    -18.103298    11.908717    9.892190    -18.583488    1.501773    2.115438    5.478529    -0.815631    -1.134755    0.676115    -0.376005    -2.275712    -4.576021    10.457011    0.000000    0.000000    0.000000    -2.098856    8.408002    -2.285879    3.060324    -0.349178    -1.788450    -0.531972    -6.683095    -10.979316    0.000000    0.000000    0.000000    
11.661914    85.574669    52.545773    0.583326    0.474353    91.838173    -2.113422    -9.288163    -0.950142    3.638642    -8.730011    -0.500637    -3.107330    27.811632    -0.979286    2.606058    0.001218    -0.998726    3.705876    3.674794    -18.854166    1.607620    20.406387    -24.616909    39.581577    -5.882541    -50.904766    46.273026    11.904757    -4.531317    -4.219528    8.139701    6.496654    74.227097    61.156269    3.294650    6.126330    -17.998400    11.902621    9.838437    -18.482933    1.499566    2.103487    5.470487    -0.819745    -1.121862    0.703058    -0.370656    -2.267360    -4.570055    10.436826    0.000000    0.000000    0.000000    -2.097246    8.408531    -2.299841    3.049546    -0.330478    -1.800696    -0.546282    -6.690034    -10.967649    0.000000    0.000000    0.000000    
11.662765    85.574493    52.544182    0.589563    0.485770    91.868843    -2.171854    -9.259917    -0.979040    3.735907    -8.776274    -0.516363    -3.113634    27.873669    -0.980196    2.503688    -0.109819    -1.014618    3.676425    3.680893    -18.880669    1.261546    19.832624    -24.502542    39.082546    -5.894022    -50.468578    46.085564    11.544452    -4.283269    -4.186736    8.218271    6.438614    74.013237    61.050236    3.436906    6.194678    -17.997658    11.943604    9.634492    -18.503725    1.373487    2.089391    5.464300    -0.826206    -1.118581    0.717393    -0.330751    -2.278437    -4.566178    10.387814    0.000000    0.000000    0.000000    -2.115817    8.418641    -2.275669    3.064613    -0.324007    -1.799995    -0.561409    -6.701553    -11.004647    0.000000    0.000000    0.000000    
11.665359    85.572586    52.542732    0.607563    0.496439    91.895752    -2.191748    -9.232851    -0.991257    3.747907    -8.797842    -0.525845    -3.082473    27.915489    -0.996356    2.449847    -0.208143    -1.034870    3.702044    3.667131    -18.915239    0.716848    18.932762    -24.348106    38.499622    -5.869068    -50.035355    45.802029    11.310926    -3.736555    -4.142600    8.216296    6.378397    74.001419    60.966991    3.405396    6.147544    -17.899151    11.923758    9.833756    -18.387438    1.496789    2.076127    5.479745    -0.824666    -1.111920    0.716808    -0.302633    -2.272411    -4.558959    10.338956    0.000000    0.000000    0.000000    -2.123494    8.438587    -2.254361    3.065030    -0.321154    -1.857240    -0.570703    -6.708497    -10.998452    0.000000    0.000000    0.000000    
11.664511    85.571182    52.537704    0.613343    0.512194    91.931580    -2.183803    -9.215779    -1.005590    3.704087    -8.822500    -0.543809    -2.965945    27.942703    -1.021174    2.300463    -0.282539    -1.068411    3.718109    3.615783    -18.915960    0.102069    18.291462    -24.214436    38.168949    -6.218418    -49.346596    45.313534    11.009734    -2.539295    -4.102587    8.195835    6.352712    74.246750    61.202400    3.198362    5.904407    -18.058514    11.893916    9.949639    -18.517200    1.521991    2.057964    5.479992    -0.833894    -1.106677    0.714300    -0.311993    -2.265868    -4.549654    10.330317    0.000000    0.000000    0.000000    -2.141306    8.443466    -2.256544    3.068688    -0.307974    -1.847569    -0.598452    -6.731458    -11.023614    0.000000    0.000000    0.000000    
